<mxfile host="app.diagrams.net" modified="2023-09-20T17:31:44.483Z" agent="5.0 (Windows NT 10.0; Win64; x64) AppleWebKit/537.36 (KHTML, like Gecko) Chrome/116.0.0.0 Safari/537.36" etag="zLsJouiwyfEV9sJ8n_ah" version="20.6.0" type="github">
  <diagram id="C5RBs43oDa-KdzZeNtuy" name="Page-1">
    <mxGraphModel dx="1038" dy="532" grid="1" gridSize="10" guides="1" tooltips="1" connect="1" arrows="1" fold="1" page="1" pageScale="1" pageWidth="827" pageHeight="1169" math="0" shadow="0">
      <root>
        <mxCell id="WIyWlLk6GJQsqaUBKTNV-0" />
        <mxCell id="WIyWlLk6GJQsqaUBKTNV-1" parent="WIyWlLk6GJQsqaUBKTNV-0" />
        <mxCell id="oWRbC3jm5_Fl9tPp2BDM-7" style="edgeStyle=orthogonalEdgeStyle;rounded=0;orthogonalLoop=1;jettySize=auto;html=1;exitX=0.5;exitY=1;exitDx=0;exitDy=0;entryX=0.5;entryY=0;entryDx=0;entryDy=0;fontSize=14;" edge="1" parent="WIyWlLk6GJQsqaUBKTNV-1" source="oWRbC3jm5_Fl9tPp2BDM-0" target="oWRbC3jm5_Fl9tPp2BDM-6">
          <mxGeometry relative="1" as="geometry" />
        </mxCell>
        <mxCell id="oWRbC3jm5_Fl9tPp2BDM-0" value="&lt;b&gt;&lt;font style=&quot;font-size: 23px;&quot;&gt;Start&lt;/font&gt;&lt;/b&gt;" style="rounded=1;whiteSpace=wrap;html=1;arcSize=50;" vertex="1" parent="WIyWlLk6GJQsqaUBKTNV-1">
          <mxGeometry x="354" y="40" width="120" height="40" as="geometry" />
        </mxCell>
        <mxCell id="oWRbC3jm5_Fl9tPp2BDM-1" style="edgeStyle=orthogonalEdgeStyle;rounded=0;orthogonalLoop=1;jettySize=auto;html=1;exitX=0.5;exitY=1;exitDx=0;exitDy=0;fontSize=23;" edge="1" parent="WIyWlLk6GJQsqaUBKTNV-1" source="oWRbC3jm5_Fl9tPp2BDM-0" target="oWRbC3jm5_Fl9tPp2BDM-0">
          <mxGeometry relative="1" as="geometry" />
        </mxCell>
        <mxCell id="oWRbC3jm5_Fl9tPp2BDM-5" value="&lt;b&gt;&lt;font style=&quot;font-size: 23px;&quot;&gt;END&lt;/font&gt;&lt;/b&gt;" style="rounded=1;whiteSpace=wrap;html=1;arcSize=50;" vertex="1" parent="WIyWlLk6GJQsqaUBKTNV-1">
          <mxGeometry x="354" y="680" width="120" height="40" as="geometry" />
        </mxCell>
        <mxCell id="oWRbC3jm5_Fl9tPp2BDM-9" style="edgeStyle=orthogonalEdgeStyle;rounded=0;orthogonalLoop=1;jettySize=auto;html=1;exitX=0.5;exitY=1;exitDx=0;exitDy=0;entryX=0.5;entryY=0;entryDx=0;entryDy=0;fontSize=10;" edge="1" parent="WIyWlLk6GJQsqaUBKTNV-1" source="oWRbC3jm5_Fl9tPp2BDM-6" target="oWRbC3jm5_Fl9tPp2BDM-8">
          <mxGeometry relative="1" as="geometry" />
        </mxCell>
        <mxCell id="oWRbC3jm5_Fl9tPp2BDM-6" value="&lt;font style=&quot;font-size: 14px;&quot;&gt;baris1,&amp;nbsp;&lt;br&gt;jmlBaris,&amp;nbsp;hasil&lt;/font&gt;" style="shape=parallelogram;perimeter=parallelogramPerimeter;whiteSpace=wrap;html=1;fixedSize=1;fontSize=23;align=center;" vertex="1" parent="WIyWlLk6GJQsqaUBKTNV-1">
          <mxGeometry x="346" y="160" width="136" height="80" as="geometry" />
        </mxCell>
        <mxCell id="oWRbC3jm5_Fl9tPp2BDM-12" style="edgeStyle=orthogonalEdgeStyle;rounded=0;orthogonalLoop=1;jettySize=auto;html=1;exitX=0.5;exitY=1;exitDx=0;exitDy=0;entryX=0.5;entryY=0;entryDx=0;entryDy=0;fontSize=14;" edge="1" parent="WIyWlLk6GJQsqaUBKTNV-1" source="oWRbC3jm5_Fl9tPp2BDM-8" target="oWRbC3jm5_Fl9tPp2BDM-11">
          <mxGeometry relative="1" as="geometry" />
        </mxCell>
        <mxCell id="oWRbC3jm5_Fl9tPp2BDM-8" value="&lt;font style=&quot;font-size: 14px;&quot;&gt;hasil = baris1 x jmlBaris&lt;/font&gt;" style="whiteSpace=wrap;html=1;aspect=fixed;fontSize=14;" vertex="1" parent="WIyWlLk6GJQsqaUBKTNV-1">
          <mxGeometry x="354" y="320" width="120" height="120" as="geometry" />
        </mxCell>
        <mxCell id="oWRbC3jm5_Fl9tPp2BDM-13" style="edgeStyle=orthogonalEdgeStyle;rounded=0;orthogonalLoop=1;jettySize=auto;html=1;exitX=0.5;exitY=1;exitDx=0;exitDy=0;entryX=0.5;entryY=0;entryDx=0;entryDy=0;fontSize=16;" edge="1" parent="WIyWlLk6GJQsqaUBKTNV-1" source="oWRbC3jm5_Fl9tPp2BDM-11" target="oWRbC3jm5_Fl9tPp2BDM-5">
          <mxGeometry relative="1" as="geometry" />
        </mxCell>
        <mxCell id="oWRbC3jm5_Fl9tPp2BDM-11" value="&lt;font style=&quot;font-size: 16px;&quot;&gt;hasil&lt;/font&gt;" style="shape=parallelogram;perimeter=parallelogramPerimeter;whiteSpace=wrap;html=1;fixedSize=1;fontSize=23;align=center;" vertex="1" parent="WIyWlLk6GJQsqaUBKTNV-1">
          <mxGeometry x="346" y="520" width="136" height="80" as="geometry" />
        </mxCell>
      </root>
    </mxGraphModel>
  </diagram>
</mxfile>
